<?xml version="1.0" encoding="UTF-8"?>
<svg width="2160" height="2160" version="1.1" xmlns="http://www.w3.org/2000/svg">
 <g fill="#000000">
  <path d="m240.63 1602.1v161.5l27.36 3.6c14.46 1.6 48.01 3.1 73.82 3.1 39.75 0 50.08-2 73.82-13.4 38.72-19.6 77.95-59.9 98.6-101.2 14.45-29.9 16.52-38.7 13.42-58.8-6.19-45.4-50.59-108.4-99.63-140.9l-23.75-16h-163.64zm127.51-83.7c21.68 15 47.49 54.2 51.62 78.5 2.07 13.9-0.51 23.2-10.32 40.8-13.42 22.7-56.27 65.5-65.56 65.5-3.1 0-5.17-34.6-5.17-98 0-72.3 1.55-98.1 6.2-98.1 3.1 0 13.94 5.1 23.23 11.3z"/>
  <path d="m1832.7 1518.4c-34.1 16-63 43.4-69.7 66.6-8.3 26.3 1.5 48 30.9 72.3 34.1 26.8 27.4 44.9-21.6 61.9-10.4 3.7-18.6 9.3-17.6 11.9s12.4 13.9 25.3 25.3c28.9 24.3 40.3 23.2 85.7-6.7 36.6-24.8 53.2-51.6 47-75.9-4.7-15.5-10.9-22.7-50.1-56.3-12.4-10.8-16-17.5-13.4-24.2 3.6-9.8 31.5-25.8 55.7-31.5l15-3.6-13.9-14.5c-7.3-7.7-22.2-19.1-33.1-24.8-19.1-10.8-19.1-10.8-40.2-0.5z"/>
  <path d="m575.66 1523.1c-2.58 1.5-4.13 34.6-3.61 74.8 1.03 39.3 0.51 93.5-1.04 120.3l-2.58 48.5 85.7 1.1 86.2 1 5.17-18.6c3.09-10.3 6.71-26.3 8.77-36.1 3.62-17.6 3.62-17.6-12.39-14.5-8.77 2.1-30.97 4.7-49.55 6.7l-33.56 3.6v-39.2l41.82 3.6 42.33 3.6-3.1-26.3c-1.55-14.4-4.65-28.4-6.2-31-1.55-3.1-19.1-5.1-39.23-5.1h-35.62v-32.5l37.69 3.6c20.13 2 41.29 4.6 46.97 6.7 8.78 2.6 9.29 0.5 5.68-24.8-6.71-50.1-0.52-47-89.82-48-43.37 0-81.05 1-83.63 2.6z"/>
  <path d="m833.25 1522c-13.42 2.1-25.29 4.7-26.32 5.7-1.04 1.6-3.62 56.8-5.17 122.4l-3.09 120.2h159.51l8.26-19.6c4.13-10.3 9.29-26.8 10.84-36.6l3.1-17.6-20.14 3.1c-10.84 2.1-32.52 5.2-48 7.2l-27.88 3.2 3.1-96.1 3.09-96.5-16.52 0.5c-9.29 0.5-27.35 2.6-40.78 4.1z"/>
  <path d="m1009.8 1629.4c0 62-1.5 117.7-3.1 123.9-3.1 11.9-2.6 11.9 44.4 11.9h48l-3.1-33-3.1-33.6 27.4-7.8c36.1-10.8 74.8-37.6 86.7-60.9 8.8-16.5 9.3-21.6 4.1-40.7-7.7-28.4-37.1-58.4-64.5-66.1-11.4-3.1-47-5.7-78.5-5.7h-58.3zm113.1-37.7c13.4 14.5 9.8 26.4-10.4 36.7-7.7 4.1-15.5 7.7-17.5 7.7-1.6 0-2.6-13.9-2.6-30.4 0-27.4 1-30.5 9.8-27.9 5.7 1.5 15 7.7 20.7 13.9z"/>
  <path d="m1280.8 1524.6-31 5.7-0.5 117.2c-0.5 82.1 1.1 117.7 5.2 118.2 18.1 1.5 63-2.1 71.7-5.2 9.3-3.6 10.4-7.7 9.3-37.1-0.5-18.1-2-37.2-3.6-42.4-2.6-8.2 0.5-9.3 32.5-7.7l35.1 1.5 5.2 93 23.2-1.6c12.9-1 30.5-3.6 39.3-6.7l16.5-5.2 2.1-114.6c1-62.9 0-116.1-2.1-117.7-4.7-3.1-48.5-1-69.7 3.7-11.4 2-11.9 4.6-11.9 43.3v41.3h-66l-2.6-17c-1.1-8.8-1.1-30 0.5-46.5 3.1-34 4.1-33.5-53.2-22.2z"/>
  <path d="m1546.2 1523.1c-2.6 1.5-4.2 34.6-3.7 74.8 1.1 39.3 0.6 93.5-1 120.3l-2.6 48.5 85.7 1.1 86.2 1 5.2-18.6c3.1-10.3 6.7-26.3 8.8-36.1 3.6-17.6 3.6-17.6-12.4-14.5-8.8 2.1-31 4.7-49.6 6.7l-33.5 3.6v-39.2l41.8 3.6 42.3 3.6-3.1-26.3c-1.5-14.4-4.6-28.4-6.2-31-1.5-3.1-19.1-5.1-39.2-5.1h-35.6v-32.5l37.6 3.6c20.2 2 41.3 4.6 47 6.7 8.8 2.6 9.3 0.5 5.7-24.8-6.7-50.1-0.5-47-89.8-48-43.4 0-81.1 1-83.6 2.6z"/>
  <path d="m803.82 1866.2c-4.99 20 17.83 31 28.88 13.9 8.55-12.8 2.13-23.5-14.26-23.5-10.34 0-12.84 1.4-14.62 9.6z"/>
  <path d="m1670 1866.2c-5 20 17.8 31 28.9 13.9 8.5-12.8 2.1-23.5-14.3-23.5-10.3 0-12.8 1.4-14.6 9.6z"/>
  <path d="m126.19 1856.6c-12.12 5-19.25 19.2-21.39 42.7-2.13 20.7-2.49 21.4-12.115 21.4-9.268 0-10.338 1.1-10.338 12.5s0.713 12.5 10.694 12.5h10.689v92.3l-9.619 1.1c-8.199 0.7-10.338 2.8-11.051 12.5l-1.069 11.7h78.779v-12.5c0-11.7-0.71-12.4-12.48-12.4h-12.47v-92.7h10.69c9.98 0 10.69-1.1 10.69-12.5s-0.71-12.5-10.69-12.5h-10.69v-21.4c0-20.3 0.35-21.3 8.55-21.3 5.35 0 9.27 2.5 10.34 6.7 1.07 5.4 3.92 6.5 9.98 5 17.47-3.5 17.47-3.5 13.55-15.3-6.42-17.8-31.02-26.4-52.05-17.8z"/>
  <path d="m1305 1869c0 11.8 0.7 12.5 12.5 12.5h12.5v156.9h-12.5c-11.8 0-12.5 0.7-12.5 12.4v12.5h74.9v-12.5c0-11.4-0.8-12.4-10.7-12.4h-10.7v-181.8h-53.5z"/>
  <path d="m507.6 1886.5c-11.4 10-15.32 16.4-15.32 23.9 0 8.5-1.43 10.3-8.92 10.3-7.84 0-8.91 1.5-8.91 12.5 0 11.1 1.07 12.5 8.91 12.5h8.92v39.9c0.35 63.8 7.48 81.3 33.86 81.3 18.89 0 23.17-3.2 23.17-16.4 0-11.4-0.71-12.1-12.48-12.1h-12.47v-92.7h12.47c11.77 0 12.48-0.7 12.48-12.5s-0.71-12.5-12.48-12.5h-12.12l-1.07-23.9-1.06-24.2z"/>
  <path d="m1589.5 1887.2c-10 8.9-13.6 15-13.6 22.8 0 8.9-1.4 10.7-8.9 10.7-7.8 0-8.9 1.5-8.9 12.5 0 11.1 1.1 12.5 8.9 12.5h8.9v48.1c0 27.5 1.8 51.3 3.9 56.3 6.5 13.9 25 20 45.3 14.7 6.1-1.8 7.8-5 7.8-14.3 0-11.1-0.7-11.8-13.1-12.8l-13.6-1.1-1.1-45.6-1-45.3h14.6c13.9 0 14.2-0.4 14.2-12.5s-0.3-12.5-14.2-12.5h-13.9l-1.1-22.8-1.1-23.2z"/>
  <path d="m208.53 1923.9c-13.18 6.1-26.37 18.9-26.37 25.7 0 1.4 5.7 3.6 12.47 4.6 9.63 1.8 14.26 0.8 20.32-5 5.35-4.9 12.48-7.1 24.24-7.1 22.1 0 28.87 5.7 31.37 26.8 1.78 16 1.42 17.1-4.99 14.2-30.66-12.8-53.83-10.7-71.29 6.8-14.26 14.2-17.83 27.1-12.48 44.9 5.35 18.5 21.39 29.2 44.56 31.4 15.33 1 20.32 0 31.72-7.9 16.4-11 16.76-11 16.76-2.1 0 6.4 2.49 7.1 25.3 7.1h24.96l-1.07-11.7c-1.07-10-2.5-11.5-12.48-12.5l-11.76-1.1v-43.5c0-48.5-2.5-56.7-21.03-69.1-15.69-10.7-48.84-11.1-70.23-1.5zm52.05 79.9c6.41 3.2 8.91 7.5 8.91 14.6 0 21-38.5 35.3-54.18 20-9.63-8.9-10.7-23.6-2.14-32.8 6.77-7.9 33.86-8.9 47.41-1.8z"/>
  <path d="m368.94 1920.7c-16.4 5-27.09 18.6-28.87 37.1-1.78 15-1.07 17.1 10.34 28.5 11.05 11.1 31.36 20 46.69 20 12.83 0 31.01 10.3 31.01 17.4 0 18.6-39.56 25.4-55.25 9.3-4.99-4.6-8.91-11-8.91-14.2 0-4-3.56-5.4-12.48-5.4h-12.47v49.9h12.47c6.78 0 12.48-1.4 12.48-3.2 0-2.1 4.28-1.1 9.98 1.8 12.12 6.4 40.28 6.4 55.61 0 27.8-11.8 36.71-46.4 17.11-66.3-10.34-10-19.96-13.6-58.46-21.4-19.61-3.9-20.67-4.6-20.67-14.3 0-12.1 8.19-17.8 26.02-17.8 13.19 0 31.01 11.4 31.01 20 0 3.2 3.92 5 12.48 5h12.47v-46.7l-16.75 0.7c-9.63 0-24.95-0.4-34.94-1.8-9.62-1.1-22.81-0.4-28.87 1.4z"/>
  <path d="m671.58 1923.9c-18.18 8.6-27.81 24.6-24.6 42.5 3.56 22.4 22.46 34.5 64.52 41.7 17.47 2.8 23.17 7.4 23.17 18.1s-9.63 15.7-30.3 15.7c-12.48 0-18.18-2.1-24.95-8.9-4.99-4.6-8.91-11-8.91-14.2 0-4.3-2.86-5.4-11.41-4.7l-11.76 1.1-1.07 23.9-1.07 24.2h12.83c6.77 0 12.48-1.8 12.48-3.5 0-2.2 4.63-1.5 10.69 1.7 5.7 2.9 17.82 5.4 26.73 5.4 41 0 66.66-27.8 53.47-58.8-6.41-16.1-21.74-25-51.33-30.3-29.94-5.7-36-8.9-36-19.6 0-10.4 9.27-16.1 26.02-16.1 13.19 0 31.01 11.4 31.01 20 0 3.2 3.93 5 12.48 5h12.48v-46.7l-16.76 0.7c-9.62 0-24.95-0.7-34.93-1.8-13.9-1.8-21.03-0.7-32.79 4.6z"/>
  <path d="m953.89 1921.4c-5.7 2.2-13.9 6.1-17.82 8.6-9.63 6.8-12.48 6.1-12.48-2.1 0-6.5-2.49-7.2-26.73-7.2h-26.74v12.5c0 11.8 0.72 12.5 12.48 12.5h12.48v92.7h-12.48c-11.76 0-12.48 0.7-12.48 12.4v12.5h78.43v-12.5c0-11.7-0.72-12.4-12.48-12.4h-12.48v-78.5l14.26-7.1c7.49-3.9 19.61-7.1 26.74-7.1 17.46 0 19.6 7.5 19.6 68.1v49.5h53.51v-12.5c0-11.7-0.8-12.4-12.5-12.4h-12.5v-78.5l11.8-7.1c7.8-5 16.4-7.1 27.4-6.4l16.1 1.1 1 57.7 0.7 58.1h53.5v-12.5c0-11.7-0.7-12.4-12.5-12.4h-12.4v-47.4c0-40-1.1-48.9-6.8-58.1-11.4-18.6-42.1-19.3-69.9-1.8-10.7 6.7-10.7 6.7-19.9-2.2-11.09-9.9-32.12-13.5-47.81-7.5z"/>
  <path d="m1433.3 1922.9c-14.2 6-28.5 18.5-28.5 24.6 0 8.2 21.4 9.6 31 1.7 12.5-9.6 40.3-9.9 48.9-0.3 5.7 6.4 12.4 36 8.5 36-1.1 0-7.8-2.5-14.6-5.4-16.8-6.7-34.9-6.7-49.5 0.4-35 16.8-36.4 64.5-2.5 82 14.9 7.5 42.7 5 57-5.4 10.3-7.4 10.3-7.4 10.3-0.3 0 6.4 2.2 7.1 25 7.1h24.9v-12.5c0-11.4-1-12.4-10.3-12.4h-10.3l-1.5-45.7c-1.4-49.5-4.2-57.7-21.7-68.4-13.9-8.6-48.5-9.3-66.7-1.4zm50.3 82c8.5 4.2 10.7 7.4 9.6 14.6-2.1 19.2-37.1 32.4-54.5 21-10.7-7.1-12.1-24.6-2.9-34.9 7.2-8.2 32.8-8.6 47.8-0.7z"/>
  <path d="m1784.4 1923.9c-53.4 24.3-58.8 99.5-9.6 132.3 47.4 31.4 109.1 2.8 116.9-54.2 6.1-44.9-28.8-84.8-75.2-84.8-9.6 0-24.2 3.2-32.1 6.7zm53.2 25.3c12.8 4.7 23.5 23.9 23.5 42.1 0 37.8-33.5 61.3-64.5 45.3-29.6-15.7-33.2-66.3-6.1-85.2 8.9-6.4 33.5-7.5 47.1-2.2z"/>
  <path d="m2000.1 1920.4c-5 1.4-14.3 5.3-20.3 8.5-14.6 7.5-15.3 7.5-15.3-1 0-6.5-2.5-7.2-26.8-7.2h-26.7v12.5c0 11.8 0.7 12.5 12.5 12.5h12.4v92.7h-12.4c-11.8 0-12.5 0.7-12.5 12.4v12.5h78.4v-12.5c0-11.7-0.7-12.4-12.5-12.4h-12.4v-78.5l14.2-7.1c18.2-9.3 37.8-9.6 42.8-0.3 1.8 3.9 3.6 29.9 3.6 58.8v52h53.4v-12.5c0-11.7-0.7-12.4-12.1-12.4h-12.1l-1.4-49.9c-1.1-47.8-1.5-50.3-10.4-58.9-9.6-9.9-28.1-13.9-42.4-9.2z"/>
  <path d="m784.57 1933.2c0 11.4 0.72 12.5 10.7 12.5h10.69v92.7h-10.69c-9.98 0-10.7 1-10.7 12.4v12.5h71.3v-12.5c0-11.4-0.72-12.4-10.7-12.4h-10.69v-117.7h-49.91z"/>
  <path d="m1133.9 1933.2c0 11.4 0.7 12.5 10.7 12.5h10.7v100.5l10.3 10.4c13.6 13.1 34.6 13.9 58.5 1.7 15.7-7.8 16.7-7.8 16.7-1.7 0 6 2.9 6.7 26.8 6.7h26.7v-12.5c0-11.7-0.7-12.4-12.5-12.4h-12.4v-117.7h-53.5v12.5c0 11.8 0.7 12.5 12.5 12.5h12.8l-1.1 39.6c-1 37.7-1.4 40.2-10 46.7-11.7 8.5-33.8 12.1-40.9 6.4-4.3-3.6-5.4-15-5.4-61v-56.7h-49.9z"/>
  <path d="m1650.8 1933.2c0 11.4 0.7 12.5 10.7 12.5h10.7v92.7h-10.7c-10 0-10.7 1-10.7 12.4v12.5h71.3v-12.5c0-11.4-0.7-12.4-10.7-12.4h-10.7v-117.7h-49.9z"/>
 </g>
 <circle cx="1080" cy="760" r="640" fill="#000000" stroke="#000000" stroke-width="0"/>
 <circle cx="1080" cy="760" r="600" fill="none" stroke="#ffffff" stroke-width="30"/>
 <circle cx="1080" cy="760" r="560" fill="none" stroke="#000000" stroke-width="20"/>
 <path d="m660 1120 40 40h760l40-40z" fill="#ffffff" stroke="#000000" stroke-width="0"/>
 <path d="m720 1180h720l-50 40h-620z" fill="#ffffff" stroke="#000000" stroke-width="0"/>
 <path d="m800 1240h560c-210 100-350 100-560 0z" fill="#ffffff" stroke="#000000" stroke-width="0"/>
 <path d="m780 1100 20-540-40-40v-40h160v40l-40 40 20 540z" fill="#ffffff" stroke="#000000" stroke-width="0"/>
 <path d="m1260 1100 20-540-40-40v-40h160v40l-40 40 20 540z" fill="#ffffff" stroke="#000000" stroke-width="0"/>
 <path d="m1020 1100 20-540-40-40v-40h160v40l-40 40 20 540z" fill="#ffffff" stroke="#000000" stroke-width="0"/>
 <rect x="820" y="400" width="520" height="60" ry="0" fill="#ffffff" stroke="#000000" stroke-width="0"/>
 <rect x="900" y="320" width="360" height="60" ry="0" fill="#ffffff" stroke="#000000" stroke-width="0"/>
 <rect x="860" y="260" width="440" height="40" ry="0" fill="#ffffff" stroke="#000000" stroke-width="0"/>
 <rect x="980" y="220" width="40" height="40" fill="#ffffff" stroke="#000000" stroke-width="0"/>
 <rect x="1140" y="220" width="40" height="40" fill="#ffffff" stroke="#000000" stroke-width="0"/>
</svg>
